<svg width="50" height="50" viewBox="0 0 50 50" fill="none" xmlns="http://www.w3.org/2000/svg">
<path d="M24.9999 25C26.1458 25 27.127 24.5916 27.9437 23.775C28.7589 22.9597 29.1666 21.9791 29.1666 20.8333C29.1666 19.6875 28.7589 18.7062 27.9437 17.8895C27.127 17.0743 26.1458 16.6666 24.9999 16.6666C23.8541 16.6666 22.8735 17.0743 22.0583 17.8895C21.2416 18.7062 20.8333 19.6875 20.8333 20.8333C20.8333 21.9791 21.2416 22.9597 22.0583 23.775C22.8735 24.5916 23.8541 25 24.9999 25ZM24.9999 45.052C24.7221 45.052 24.4444 45 24.1666 44.8958C23.8888 44.7916 23.6458 44.6527 23.4374 44.4791C18.368 40 14.5833 35.8423 12.0833 32.0062C9.58325 28.1687 8.33325 24.5833 8.33325 21.25C8.33325 16.0416 10.0089 11.8923 13.3603 8.80204C16.7103 5.71176 20.5902 4.16663 24.9999 4.16663C29.4096 4.16663 33.2895 5.71176 36.6395 8.80204C39.9909 11.8923 41.6666 16.0416 41.6666 21.25C41.6666 24.5833 40.4166 28.1687 37.9166 32.0062C35.4166 35.8423 31.6319 40 26.5624 44.4791C26.3541 44.6527 26.111 44.7916 25.8333 44.8958C25.5555 45 25.2777 45.052 24.9999 45.052Z" fill="#555555"/>
</svg>
