<svg width="50" height="50" viewBox="0 0 50 50" fill="none" xmlns="http://www.w3.org/2000/svg">
<path d="M40.8333 47.75L27.7083 34.625C26.6667 35.4583 25.4687 36.1181 24.1146 36.6042C22.7604 37.0903 21.3194 37.3333 19.7917 37.3333C16.0069 37.3333 12.8042 36.0229 10.1833 33.4021C7.56111 30.7799 6.25 27.5764 6.25 23.7917C6.25 20.0069 7.56111 16.8035 10.1833 14.1813C12.8042 11.5604 16.0069 10.25 19.7917 10.25C23.5764 10.25 26.7799 11.5604 29.4021 14.1813C32.0229 16.8035 33.3333 20.0069 33.3333 23.7917C33.3333 25.3194 33.0903 26.7604 32.6042 28.1146C32.1181 29.4687 31.4583 30.6667 30.625 31.7083L43.75 44.8333L40.8333 47.75ZM19.7917 33.1667C22.3958 33.1667 24.6097 32.2556 26.4333 30.4333C28.2556 28.6097 29.1667 26.3958 29.1667 23.7917C29.1667 21.1875 28.2556 18.9736 26.4333 17.15C24.6097 15.3278 22.3958 14.4167 19.7917 14.4167C17.1875 14.4167 14.9736 15.3278 13.15 17.15C11.3278 18.9736 10.4167 21.1875 10.4167 23.7917C10.4167 26.3958 11.3278 28.6097 13.15 30.4333C14.9736 32.2556 17.1875 33.1667 19.7917 33.1667Z" fill="#555555"/>
</svg>
